<mxfile host="app.diagrams.net" modified="2022-01-10T03:17:15.681Z" agent="5.0 (Windows NT 10.0; Win64; x64) AppleWebKit/537.36 (KHTML, like Gecko) Chrome/96.0.4664.110 Safari/537.36" etag="FLrgm9r1wdYv0bo2IRKZ" version="16.2.4" type="github">
  <diagram id="C5RBs43oDa-KdzZeNtuy" name="Page-1">
    <mxGraphModel dx="1102" dy="614" grid="1" gridSize="10" guides="1" tooltips="1" connect="1" arrows="1" fold="1" page="1" pageScale="1" pageWidth="827" pageHeight="1169" math="0" shadow="0">
      <root>
        <mxCell id="WIyWlLk6GJQsqaUBKTNV-0" />
        <mxCell id="WIyWlLk6GJQsqaUBKTNV-1" parent="WIyWlLk6GJQsqaUBKTNV-0" />
        <mxCell id="WIyWlLk6GJQsqaUBKTNV-2" value="" style="rounded=0;html=1;jettySize=auto;orthogonalLoop=1;fontSize=11;endArrow=block;endFill=0;endSize=8;strokeWidth=1;shadow=0;labelBackgroundColor=none;edgeStyle=orthogonalEdgeStyle;" parent="WIyWlLk6GJQsqaUBKTNV-1" source="WIyWlLk6GJQsqaUBKTNV-3" target="WIyWlLk6GJQsqaUBKTNV-6" edge="1">
          <mxGeometry relative="1" as="geometry" />
        </mxCell>
        <mxCell id="WIyWlLk6GJQsqaUBKTNV-3" value="Lamp doesn&#39;t work" style="rounded=1;whiteSpace=wrap;html=1;fontSize=12;glass=0;strokeWidth=1;shadow=0;sketch=1;fillColor=#dae8fc;strokeColor=#6c8ebf;" parent="WIyWlLk6GJQsqaUBKTNV-1" vertex="1">
          <mxGeometry x="160" y="80" width="120" height="40" as="geometry" />
        </mxCell>
        <mxCell id="WIyWlLk6GJQsqaUBKTNV-4" value="Yes" style="rounded=0;html=1;jettySize=auto;orthogonalLoop=1;fontSize=11;endArrow=block;endFill=0;endSize=8;strokeWidth=1;shadow=0;labelBackgroundColor=none;edgeStyle=orthogonalEdgeStyle;" parent="WIyWlLk6GJQsqaUBKTNV-1" source="WIyWlLk6GJQsqaUBKTNV-6" target="WIyWlLk6GJQsqaUBKTNV-10" edge="1">
          <mxGeometry y="20" relative="1" as="geometry">
            <mxPoint as="offset" />
          </mxGeometry>
        </mxCell>
        <mxCell id="WIyWlLk6GJQsqaUBKTNV-5" value="No" style="edgeStyle=orthogonalEdgeStyle;rounded=0;html=1;jettySize=auto;orthogonalLoop=1;fontSize=11;endArrow=block;endFill=0;endSize=8;strokeWidth=1;shadow=0;labelBackgroundColor=none;" parent="WIyWlLk6GJQsqaUBKTNV-1" source="WIyWlLk6GJQsqaUBKTNV-6" target="WIyWlLk6GJQsqaUBKTNV-7" edge="1">
          <mxGeometry y="10" relative="1" as="geometry">
            <mxPoint as="offset" />
          </mxGeometry>
        </mxCell>
        <mxCell id="WIyWlLk6GJQsqaUBKTNV-6" value="Lamp&lt;br&gt;plugged in?" style="rhombus;whiteSpace=wrap;html=1;shadow=0;fontFamily=Helvetica;fontSize=12;align=center;strokeWidth=1;spacing=6;spacingTop=-4;" parent="WIyWlLk6GJQsqaUBKTNV-1" vertex="1">
          <mxGeometry x="170" y="170" width="100" height="80" as="geometry" />
        </mxCell>
        <mxCell id="WIyWlLk6GJQsqaUBKTNV-7" value="Plug in lamp" style="rounded=1;whiteSpace=wrap;html=1;fontSize=12;glass=0;strokeWidth=1;shadow=0;" parent="WIyWlLk6GJQsqaUBKTNV-1" vertex="1">
          <mxGeometry x="320" y="190" width="120" height="40" as="geometry" />
        </mxCell>
        <mxCell id="WIyWlLk6GJQsqaUBKTNV-8" value="No" style="rounded=0;html=1;jettySize=auto;orthogonalLoop=1;fontSize=11;endArrow=block;endFill=0;endSize=8;strokeWidth=1;shadow=0;labelBackgroundColor=none;edgeStyle=orthogonalEdgeStyle;" parent="WIyWlLk6GJQsqaUBKTNV-1" source="WIyWlLk6GJQsqaUBKTNV-10" target="WIyWlLk6GJQsqaUBKTNV-11" edge="1">
          <mxGeometry x="0.3333" y="20" relative="1" as="geometry">
            <mxPoint as="offset" />
          </mxGeometry>
        </mxCell>
        <mxCell id="WIyWlLk6GJQsqaUBKTNV-9" value="Yes" style="edgeStyle=orthogonalEdgeStyle;rounded=0;html=1;jettySize=auto;orthogonalLoop=1;fontSize=11;endArrow=block;endFill=0;endSize=8;strokeWidth=1;shadow=0;labelBackgroundColor=none;" parent="WIyWlLk6GJQsqaUBKTNV-1" source="WIyWlLk6GJQsqaUBKTNV-10" target="WIyWlLk6GJQsqaUBKTNV-12" edge="1">
          <mxGeometry y="10" relative="1" as="geometry">
            <mxPoint as="offset" />
          </mxGeometry>
        </mxCell>
        <mxCell id="WIyWlLk6GJQsqaUBKTNV-10" value="Bulb&lt;br&gt;burned out?" style="rhombus;whiteSpace=wrap;html=1;shadow=0;fontFamily=Helvetica;fontSize=12;align=center;strokeWidth=1;spacing=6;spacingTop=-4;" parent="WIyWlLk6GJQsqaUBKTNV-1" vertex="1">
          <mxGeometry x="170" y="290" width="100" height="80" as="geometry" />
        </mxCell>
        <mxCell id="WIyWlLk6GJQsqaUBKTNV-11" value="Repair Lamp" style="rounded=1;whiteSpace=wrap;html=1;fontSize=12;glass=0;strokeWidth=1;shadow=0;" parent="WIyWlLk6GJQsqaUBKTNV-1" vertex="1">
          <mxGeometry x="160" y="430" width="120" height="40" as="geometry" />
        </mxCell>
        <mxCell id="WIyWlLk6GJQsqaUBKTNV-12" value="Replace Bulb" style="rounded=1;whiteSpace=wrap;html=1;fontSize=12;glass=0;strokeWidth=1;shadow=0;" parent="WIyWlLk6GJQsqaUBKTNV-1" vertex="1">
          <mxGeometry x="320" y="310" width="120" height="40" as="geometry" />
        </mxCell>
        <mxCell id="yJIpOu0lYcwrgFNM8Iei-16" value="" style="edgeStyle=orthogonalEdgeStyle;rounded=0;orthogonalLoop=1;jettySize=auto;html=1;" edge="1" parent="WIyWlLk6GJQsqaUBKTNV-1" source="yJIpOu0lYcwrgFNM8Iei-0" target="WIyWlLk6GJQsqaUBKTNV-11">
          <mxGeometry relative="1" as="geometry" />
        </mxCell>
        <mxCell id="yJIpOu0lYcwrgFNM8Iei-0" value="Horizontal Flow Layout" style="swimlane;html=1;startSize=20;horizontal=0;childLayout=flowLayout;flowOrientation=west;resizable=0;interRankCellSpacing=50;containerType=tree;sketch=1;" vertex="1" parent="WIyWlLk6GJQsqaUBKTNV-1">
          <mxGeometry x="330" y="410" width="910" height="180" as="geometry" />
        </mxCell>
        <mxCell id="yJIpOu0lYcwrgFNM8Iei-1" value="Start" style="whiteSpace=wrap;html=1;sketch=1;" vertex="1" parent="yJIpOu0lYcwrgFNM8Iei-0">
          <mxGeometry x="40" y="70" width="100" height="40" as="geometry" />
        </mxCell>
        <mxCell id="yJIpOu0lYcwrgFNM8Iei-2" value="Task" style="whiteSpace=wrap;html=1;sketch=1;" vertex="1" parent="yJIpOu0lYcwrgFNM8Iei-0">
          <mxGeometry x="190" y="20" width="100" height="40" as="geometry" />
        </mxCell>
        <mxCell id="yJIpOu0lYcwrgFNM8Iei-3" value="" style="html=1;curved=1;rounded=0;noEdgeStyle=1;orthogonal=1;" edge="1" parent="yJIpOu0lYcwrgFNM8Iei-0" source="yJIpOu0lYcwrgFNM8Iei-1" target="yJIpOu0lYcwrgFNM8Iei-2">
          <mxGeometry relative="1" as="geometry">
            <Array as="points">
              <mxPoint x="152" y="80" />
              <mxPoint x="178" y="40" />
            </Array>
          </mxGeometry>
        </mxCell>
        <mxCell id="yJIpOu0lYcwrgFNM8Iei-4" value="Task" style="whiteSpace=wrap;html=1;sketch=1;" vertex="1" parent="yJIpOu0lYcwrgFNM8Iei-0">
          <mxGeometry x="640" y="85" width="100" height="40" as="geometry" />
        </mxCell>
        <mxCell id="yJIpOu0lYcwrgFNM8Iei-5" value="" style="html=1;curved=1;rounded=0;noEdgeStyle=1;orthogonal=1;" edge="1" parent="yJIpOu0lYcwrgFNM8Iei-0" source="yJIpOu0lYcwrgFNM8Iei-1" target="yJIpOu0lYcwrgFNM8Iei-4">
          <mxGeometry relative="1" as="geometry">
            <Array as="points">
              <mxPoint x="154" y="90" />
              <mxPoint x="165" y="90" />
              <mxPoint x="315" y="90" />
              <mxPoint x="315" y="70" />
              <mxPoint x="465" y="70" />
              <mxPoint x="465" y="70" />
              <mxPoint x="615" y="70" />
              <mxPoint x="628" y="97.5" />
            </Array>
          </mxGeometry>
        </mxCell>
        <mxCell id="yJIpOu0lYcwrgFNM8Iei-6" value="End" style="whiteSpace=wrap;html=1;sketch=1;" vertex="1" parent="yJIpOu0lYcwrgFNM8Iei-0">
          <mxGeometry x="790" y="60" width="100" height="40" as="geometry" />
        </mxCell>
        <mxCell id="yJIpOu0lYcwrgFNM8Iei-7" value="" style="html=1;curved=1;rounded=0;noEdgeStyle=1;orthogonal=1;" edge="1" parent="yJIpOu0lYcwrgFNM8Iei-0" source="yJIpOu0lYcwrgFNM8Iei-2" target="yJIpOu0lYcwrgFNM8Iei-6">
          <mxGeometry relative="1" as="geometry">
            <Array as="points">
              <mxPoint x="302" y="40" />
              <mxPoint x="315" y="40" />
              <mxPoint x="465" y="40" />
              <mxPoint x="465" y="40" />
              <mxPoint x="615" y="40" />
              <mxPoint x="615" y="40" />
              <mxPoint x="765" y="40" />
              <mxPoint x="778" y="72.5" />
            </Array>
          </mxGeometry>
        </mxCell>
        <mxCell id="yJIpOu0lYcwrgFNM8Iei-8" value="" style="html=1;curved=1;rounded=0;noEdgeStyle=1;orthogonal=1;" edge="1" parent="yJIpOu0lYcwrgFNM8Iei-0" source="yJIpOu0lYcwrgFNM8Iei-4" target="yJIpOu0lYcwrgFNM8Iei-6">
          <mxGeometry relative="1" as="geometry">
            <Array as="points">
              <mxPoint x="752" y="105" />
              <mxPoint x="778" y="87.5" />
            </Array>
          </mxGeometry>
        </mxCell>
        <mxCell id="yJIpOu0lYcwrgFNM8Iei-9" value="" style="html=1;curved=1;rounded=0;noEdgeStyle=1;orthogonal=1;" edge="1" target="yJIpOu0lYcwrgFNM8Iei-10" source="yJIpOu0lYcwrgFNM8Iei-1" parent="yJIpOu0lYcwrgFNM8Iei-0">
          <mxGeometry relative="1" as="geometry">
            <mxPoint x="630" y="572.5" as="sourcePoint" />
            <Array as="points">
              <mxPoint x="152" y="100" />
              <mxPoint x="178" y="140" />
            </Array>
          </mxGeometry>
        </mxCell>
        <mxCell id="yJIpOu0lYcwrgFNM8Iei-10" value="Task" style="whiteSpace=wrap;html=1;sketch=1;" vertex="1" parent="yJIpOu0lYcwrgFNM8Iei-0">
          <mxGeometry x="190" y="120" width="100" height="40" as="geometry" />
        </mxCell>
        <mxCell id="yJIpOu0lYcwrgFNM8Iei-11" value="" style="html=1;curved=1;rounded=0;noEdgeStyle=1;orthogonal=1;" edge="1" target="yJIpOu0lYcwrgFNM8Iei-14" source="yJIpOu0lYcwrgFNM8Iei-10" parent="yJIpOu0lYcwrgFNM8Iei-0">
          <mxGeometry relative="1" as="geometry">
            <mxPoint x="590" y="590" as="sourcePoint" />
            <Array as="points">
              <mxPoint x="302" y="140" />
              <mxPoint x="328" y="130" />
            </Array>
          </mxGeometry>
        </mxCell>
        <mxCell id="yJIpOu0lYcwrgFNM8Iei-15" style="edgeStyle=orthogonalEdgeStyle;rounded=0;orthogonalLoop=1;jettySize=auto;html=1;entryX=1;entryY=0.75;entryDx=0;entryDy=0;noEdgeStyle=1;orthogonal=1;" edge="1" parent="yJIpOu0lYcwrgFNM8Iei-0" source="yJIpOu0lYcwrgFNM8Iei-12" target="yJIpOu0lYcwrgFNM8Iei-4">
          <mxGeometry relative="1" as="geometry">
            <Array as="points">
              <mxPoint x="602" y="120" />
              <mxPoint x="628" y="112.5" />
            </Array>
          </mxGeometry>
        </mxCell>
        <mxCell id="yJIpOu0lYcwrgFNM8Iei-12" value="Task" style="whiteSpace=wrap;html=1;sketch=1;" vertex="1" parent="yJIpOu0lYcwrgFNM8Iei-0">
          <mxGeometry x="490" y="100" width="100" height="40" as="geometry" />
        </mxCell>
        <mxCell id="yJIpOu0lYcwrgFNM8Iei-13" value="" style="html=1;curved=1;rounded=0;noEdgeStyle=1;orthogonal=1;" edge="1" target="yJIpOu0lYcwrgFNM8Iei-12" source="yJIpOu0lYcwrgFNM8Iei-14" parent="yJIpOu0lYcwrgFNM8Iei-0">
          <mxGeometry relative="1" as="geometry">
            <mxPoint x="700" y="630" as="sourcePoint" />
            <Array as="points">
              <mxPoint x="452" y="130" />
              <mxPoint x="478" y="120" />
            </Array>
          </mxGeometry>
        </mxCell>
        <mxCell id="yJIpOu0lYcwrgFNM8Iei-14" value="Task" style="whiteSpace=wrap;html=1;sketch=1;" vertex="1" parent="yJIpOu0lYcwrgFNM8Iei-0">
          <mxGeometry x="340" y="110" width="100" height="40" as="geometry" />
        </mxCell>
        <mxCell id="yJIpOu0lYcwrgFNM8Iei-17" value="Vertical Tree Layout" style="swimlane;startSize=20;horizontal=1;childLayout=treeLayout;horizontalTree=0;resizable=0;containerType=tree;sketch=1;" vertex="1" parent="WIyWlLk6GJQsqaUBKTNV-1">
          <mxGeometry x="270" y="640" width="560" height="280" as="geometry" />
        </mxCell>
        <mxCell id="yJIpOu0lYcwrgFNM8Iei-18" value="Root" style="whiteSpace=wrap;html=1;sketch=1;" vertex="1" parent="yJIpOu0lYcwrgFNM8Iei-17">
          <mxGeometry x="300" y="40" width="100" height="40" as="geometry" />
        </mxCell>
        <mxCell id="yJIpOu0lYcwrgFNM8Iei-19" value="Child 1" style="whiteSpace=wrap;html=1;sketch=1;" vertex="1" parent="yJIpOu0lYcwrgFNM8Iei-17">
          <mxGeometry x="160" y="130" width="100" height="40" as="geometry" />
        </mxCell>
        <mxCell id="yJIpOu0lYcwrgFNM8Iei-20" value="" style="edgeStyle=elbowEdgeStyle;elbow=vertical;html=1;rounded=0;" edge="1" parent="yJIpOu0lYcwrgFNM8Iei-17" source="yJIpOu0lYcwrgFNM8Iei-18" target="yJIpOu0lYcwrgFNM8Iei-19">
          <mxGeometry relative="1" as="geometry" />
        </mxCell>
        <mxCell id="yJIpOu0lYcwrgFNM8Iei-21" value="Child 2" style="whiteSpace=wrap;html=1;sketch=1;" vertex="1" parent="yJIpOu0lYcwrgFNM8Iei-17">
          <mxGeometry x="440" y="130" width="100" height="40" as="geometry" />
        </mxCell>
        <mxCell id="yJIpOu0lYcwrgFNM8Iei-22" value="" style="edgeStyle=elbowEdgeStyle;elbow=vertical;html=1;rounded=0;" edge="1" parent="yJIpOu0lYcwrgFNM8Iei-17" source="yJIpOu0lYcwrgFNM8Iei-18" target="yJIpOu0lYcwrgFNM8Iei-21">
          <mxGeometry relative="1" as="geometry" />
        </mxCell>
        <mxCell id="yJIpOu0lYcwrgFNM8Iei-23" value="" style="edgeStyle=elbowEdgeStyle;elbow=vertical;html=1;rounded=0;" edge="1" target="yJIpOu0lYcwrgFNM8Iei-24" source="yJIpOu0lYcwrgFNM8Iei-21" parent="yJIpOu0lYcwrgFNM8Iei-17">
          <mxGeometry relative="1" as="geometry">
            <mxPoint x="165" y="720" as="sourcePoint" />
          </mxGeometry>
        </mxCell>
        <mxCell id="yJIpOu0lYcwrgFNM8Iei-24" value="Child 2" style="whiteSpace=wrap;html=1;sketch=1;" vertex="1" parent="yJIpOu0lYcwrgFNM8Iei-17">
          <mxGeometry x="440" y="220" width="100" height="40" as="geometry" />
        </mxCell>
        <mxCell id="yJIpOu0lYcwrgFNM8Iei-25" value="" style="edgeStyle=elbowEdgeStyle;elbow=vertical;html=1;rounded=0;" edge="1" target="yJIpOu0lYcwrgFNM8Iei-26" source="yJIpOu0lYcwrgFNM8Iei-19" parent="yJIpOu0lYcwrgFNM8Iei-17">
          <mxGeometry relative="1" as="geometry">
            <mxPoint x="165" y="720" as="sourcePoint" />
          </mxGeometry>
        </mxCell>
        <mxCell id="yJIpOu0lYcwrgFNM8Iei-26" value="Child 1" style="whiteSpace=wrap;html=1;sketch=1;" vertex="1" parent="yJIpOu0lYcwrgFNM8Iei-17">
          <mxGeometry x="20" y="220" width="100" height="40" as="geometry" />
        </mxCell>
        <mxCell id="yJIpOu0lYcwrgFNM8Iei-27" value="" style="edgeStyle=elbowEdgeStyle;elbow=vertical;html=1;rounded=0;" edge="1" target="yJIpOu0lYcwrgFNM8Iei-28" source="yJIpOu0lYcwrgFNM8Iei-19" parent="yJIpOu0lYcwrgFNM8Iei-17">
          <mxGeometry relative="1" as="geometry">
            <mxPoint x="95" y="810" as="sourcePoint" />
          </mxGeometry>
        </mxCell>
        <mxCell id="yJIpOu0lYcwrgFNM8Iei-28" value="Child 1" style="whiteSpace=wrap;html=1;sketch=1;" vertex="1" parent="yJIpOu0lYcwrgFNM8Iei-17">
          <mxGeometry x="160" y="220" width="100" height="40" as="geometry" />
        </mxCell>
        <mxCell id="yJIpOu0lYcwrgFNM8Iei-29" value="" style="edgeStyle=elbowEdgeStyle;elbow=vertical;html=1;rounded=0;" edge="1" target="yJIpOu0lYcwrgFNM8Iei-30" source="yJIpOu0lYcwrgFNM8Iei-19" parent="yJIpOu0lYcwrgFNM8Iei-17">
          <mxGeometry relative="1" as="geometry">
            <mxPoint x="235" y="810" as="sourcePoint" />
          </mxGeometry>
        </mxCell>
        <mxCell id="yJIpOu0lYcwrgFNM8Iei-30" value="Child 1" style="whiteSpace=wrap;html=1;sketch=1;" vertex="1" parent="yJIpOu0lYcwrgFNM8Iei-17">
          <mxGeometry x="300" y="220" width="100" height="40" as="geometry" />
        </mxCell>
      </root>
    </mxGraphModel>
  </diagram>
</mxfile>
